<svg xmlns="http://www.w3.org/2000/svg" version="1.1" xmlns:xlink="http://www.w3.org/1999/xlink" xmlns:svgjs="http://svgjs.dev/svgjs" width="1500" height="1500" viewBox="0 0 1500 1500"><rect width="1500" height="1500" fill="#ffffff"></rect><g transform="matrix(0.6666666666666666,0,0,0.6666666666666666,249.78425655976667,249.78425655976673)"><svg viewBox="0 0 343 343" data-background-color="#ffffff" preserveAspectRatio="xMidYMid meet" height="1500" width="1500" xmlns="http://www.w3.org/2000/svg" xmlns:xlink="http://www.w3.org/1999/xlink"><g id="tight-bounds" transform="matrix(1,0,0,1,0.0740000000000407,0.07400000000001228)"><svg viewBox="0 0 342.85155851775386 342.85155851775386" height="342.85155851775386" width="342.85155851775386"><g><svg></svg></g><g><svg viewBox="0 0 342.85155851775386 342.85155851775386" height="342.85155851775386" width="342.85155851775386"><g><path d="M0 171.426c0-94.676 76.75-171.426 171.426-171.426 94.676 0 171.426 76.75 171.426 171.426 0 94.676-76.75 171.426-171.426 171.426-94.676 0-171.426-76.75-171.426-171.426zM171.426 337.855c91.917 0 166.43-74.513 166.429-166.429 0-91.917-74.513-166.43-166.429-166.43-91.917 0-166.43 74.513-166.43 166.43 0 91.917 74.513 166.43 166.43 166.429z" data-fill-palette-color="tertiary" fill="#000000" stroke="transparent"></path><ellipse rx="164.56874808852186" ry="164.56874808852186" cx="171.42577925887693" cy="171.42577925887693" fill="#000000" stroke="transparent" stroke-width="0" fill-opacity="1" data-fill-palette-color="tertiary"></ellipse></g><g transform="matrix(1,0,0,1,64.84655864529837,98.90304664729489)"><svg viewBox="0 0 213.1584412271571 145.0454652231641" height="145.0454652231641" width="213.1584412271571"><g><svg viewBox="0 0 213.1584412271571 145.0454652231641" height="145.0454652231641" width="213.1584412271571"><g><svg viewBox="0 0 213.1584412271571 145.0454652231641" height="145.0454652231641" width="213.1584412271571"><g transform="matrix(1,0,0,1,0,89.64391644338684)"><svg viewBox="0 0 213.1584412271571 55.401548779777244" height="55.401548779777244" width="213.1584412271571"><g id="textblocktransform"><svg viewBox="0 0 213.1584412271571 55.401548779777244" height="55.401548779777244" width="213.1584412271571" id="textblock"><g><svg viewBox="0 0 213.1584412271571 55.401548779777244" height="55.401548779777244" width="213.1584412271571"><g transform="matrix(1,0,0,1,0,0)"><svg width="213.1584412271571" viewBox="1.9499999999999997 -35.8 162.74 42.3" height="55.401548779777244" data-palette-color="#ffffff"><path d="M34.2-23.85L34.2-23.85Q34.2-23.45 33.18-23.45 32.15-23.45 31.13-24.48 30.1-25.5 30.1-26.98 30.1-28.45 31-29.65L31-29.65Q32.9-32.25 37.35-33.35L37.35-33.35Q40.55-34.15 43.75-34.15L43.75-34.15 44.15-34.15Q44.6-34.15 46.6-34L46.6-34Q46.5-34.65 47.13-35.23 47.75-35.8 48.55-35.8L48.55-35.8Q50.05-35.8 50-33.65L50-33.65Q55.4-32.7 55.7-30.75L55.7-30.75Q55.75-30.3 55.75-30L55.75-30Q55.75-29 55.18-29 54.6-29 54.8-30.2L54.8-30.2Q53.55-32.05 49.85-32.8L49.85-32.8Q48.95-28.75 40.45-15.2L40.45-15.2Q34.8-6.3 27.3-0.3L27.3-0.3Q18.7 6.5 11.1 6.5L11.1 6.5Q6.45 6.5 4.2 4.15 1.95 1.8 1.95-1.07 1.95-3.95 3.05-6L3.05-6Q5.7-11.1 10.7-13.95L10.7-13.95Q14.4-16.1 17.55-16.1L17.55-16.1Q20.95-16.1 22.88-14.45 24.8-12.8 24.8-10.3L24.8-10.3Q24.8-7.6 22.8-5.4L22.8-5.4Q21.55-4 20.8-4L20.8-4Q20.6-4 20.6-4.17 20.6-4.35 20.75-4.65L20.75-4.65Q22.55-7.3 22.55-9.58 22.55-11.85 21.3-13.3L21.3-13.3Q19.85-14.85 17.38-14.85 14.9-14.85 11.85-12.85L11.85-12.85Q8.1-10.4 5.7-5.5L5.7-5.5Q4.45-3.05 4.45-0.43 4.45 2.2 6.4 3.83 8.35 5.45 11.65 5.45L11.65 5.45Q24.35 5.45 38.2-16.85L38.2-16.85Q46.5-30.15 46.7-33.15L46.7-33.15Q43.7-33.3 43.55-33.3L43.55-33.3Q41.2-33.3 37.52-32 33.85-30.7 32.75-28.8L32.75-28.8Q32.3-28.05 32.3-27.15 32.3-26.25 33.25-25.15 34.2-24.05 34.2-23.85ZM42.5-3.35L42.5-3.35Q42.5-8.75 45.7-14.05L45.7-14.05Q42-16.4 42-21L42-21Q42-26.55 46.9-30.85L46.9-30.85Q52.4-35.7 61.1-35.7L61.1-35.7Q65.1-35.7 69.7-34.55L69.7-34.55Q70.75-34.3 78.65-30.68 86.55-27.05 90-27.05L90-27.05Q92.3-27.05 93.45-28.35L93.45-28.35Q94.05-29 94.05-29.75 94.05-30.5 93.4-31.1L93.4-31.1Q93.05-31.6 93.05-31.75 93.05-31.9 93.32-31.9 93.6-31.9 94.27-31.03 94.95-30.15 94.95-28.98 94.95-27.8 93.37-26.73 91.8-25.65 89.4-25.65L89.4-25.65Q85.65-25.65 77.75-29.28 69.85-32.9 67.82-33.3 65.8-33.7 63.2-33.7L63.2-33.7Q52.85-33.7 46.9-27L46.9-27Q46.2-26.25 45.25-23.98 44.3-21.7 44.3-19.6L44.3-19.6Q44.3-16.7 46.35-15.1L46.35-15.1Q48.95-18.9 52.5-21.15 56.05-23.4 59.7-23.4L59.7-23.4Q64.2-23.4 64.2-19.9L64.2-19.9Q64.2-15.7 59.27-10.78 54.35-5.85 50.15-5.85L50.15-5.85Q47.45-5.85 47.45-8.15L47.45-8.15Q47.45-8.95 47.87-9.55 48.3-10.15 48.9-10L48.9-10 48.8-8.85Q48.8-8.1 51.1-8.1L51.1-8.1Q54.5-8.1 58.27-11.6 62.05-15.1 62.85-18.45L62.85-18.45Q63.05-19.2 63.05-19.8L63.05-19.8Q63.05-22.05 60.17-22.05 57.3-22.05 54.22-19.85 51.15-17.65 48.45-14.05L48.45-14.05Q48.65-13.95 50-13.65L50-13.65 53-13.55Q55.2-13.45 55.2-13.05L55.2-13.05Q55.2-12.35 53.1-12.35L53.1-12.35Q52.95-12.35 52.8-12.35L52.8-12.35Q49.75-12.35 47.8-13.1L47.8-13.1Q43.95-7.2 43.95-2.25L43.95-2.25Q43.95 4.15 48.9 4.15L48.9 4.15Q54.5 4.15 60.55-3.65L60.55-3.65 70.35-18.25Q75.85-26.25 79.9-26.45L79.9-26.45 81.8-26Q82.7-25.5 82.7-24.5 82.7-23.5 82.2-23.5L82.2-23.5 80.6-23.75Q77.15-23.75 71.75-16.3L71.75-16.3 61.8-2.4Q55.4 5.05 49.55 5.05L49.55 5.05Q45.55 5.05 44.02 2.9 42.5 0.75 42.5-3.35ZM99.35-20.35L99.35-20.35Q104.25-20.35 104.25-18.5L104.25-18.5Q104.25-18.1 103.95-17.6L103.95-17.6Q102.75-15.75 99.6-15.75L99.6-15.75Q97.55-15.75 95.4-16.48 93.25-17.2 92.15-18L92.15-18Q87.5-16.65 83.87-13.85 80.25-11.05 78.45-7.5L78.45-7.5Q77.5-5.6 77.5-3.8L77.5-3.8Q77.5-1 79.82 0.75 82.15 2.5 86.65 2.5L86.65 2.5Q87.9 2.5 89.25 2.35L89.25 2.35Q97.2 1.5 101.9-2.75L101.9-2.75Q105.85-6.25 105.85-10.1L105.85-10.1Q105.85-13.15 102.9-13.15L102.9-13.15Q99.35-13.15 94.75-9.35L94.75-9.35Q93.6-8.4 92.8-6.95 92-5.5 92-4.1 92-2.7 93.4-2.35L93.4-2.35Q93.9-2.15 93.9-1.85L93.9-1.85Q93.9-1.35 92.9-1.45L92.9-1.45Q90.5-1.5 90.5-4.6 90.5-7.7 93.65-10.4L93.65-10.4Q97.95-14.1 102.75-14.1L102.75-14.1Q106.35-14.1 107.3-11.85L107.3-11.85Q107.7-10.8 107.7-9.75L107.7-9.75Q107.7-5.1 102.55-1L102.55-1Q96.4 4 86.95 4L86.95 4Q81.1 4 77.7 1.83 74.3-0.35 74.3-3.85L74.3-3.85Q74.3-5.9 75.6-7.95L75.6-7.95Q80.2-15.25 91.3-18.8L91.3-18.8Q89.65-20.7 89.65-22.85 89.65-25 90.7-26.45L90.7-26.45Q92.75-29.25 96.85-31.05L96.85-31.05Q101.75-33.2 106.65-33.2L106.65-33.2Q109.5-33.2 111.22-32.27 112.95-31.35 112.95-29.43 112.95-27.5 111.52-26.18 110.1-24.85 108.55-24.85 107-24.85 107-25.6L107-25.6Q107-26.05 107.65-26.05L107.65-26.05 108.65-25.9Q109.65-25.9 110.47-26.98 111.3-28.05 111.3-29.2L111.3-29.2Q111.3-30.9 109.35-31.7L109.35-31.7Q108.1-32.2 107-32.2 105.9-32.2 105.45-32.15L105.45-32.15Q101.15-31.9 97.05-29.15L97.05-29.15Q92.25-26 92.25-22.05L92.25-22.05Q92.25-20.6 93.25-19.35L93.25-19.35Q96.45-20.35 99.35-20.35ZM94.1-18.55L94.1-18.55Q96.25-16.85 99.05-16.85 101.85-16.85 101.85-18.4L101.85-18.4Q101.85-19.1 99.35-19.1 96.85-19.1 94.1-18.55ZM125.29-14.95L125.29-14.95 125.99-15.1Q126.54-15.1 127.04-14.65 127.54-14.2 127.54-13.95 127.54-13.7 124.44-9.13 121.34-4.55 121.34-2.75L121.34-2.75Q121.34-2.6 121.39-2.45L121.39-2.45Q121.64-1.3 122.49-1.3L122.49-1.3Q125.09-1.3 131.99-9.9L131.99-9.9Q132.14-10.1 132.34-10.1 132.54-10.1 132.54-9.73 132.54-9.35 132.09-8.75L132.09-8.75Q125.69-0.2 122.34-0.2L122.34-0.2Q121.89-0.2 121.49-0.35L121.49-0.35Q119.29-1.2 119.29-3.65L119.29-3.65Q119.29-4.5 119.49-5.35L119.49-5.35 116.39-2.35Q113.44 0.25 112.12 0.25 110.79 0.25 109.59-0.6L109.59-0.6Q108.24-1.6 108.24-3.25L108.24-3.25Q108.24-6.9 113.34-11.98 118.44-17.05 122.69-17.05L122.69-17.05Q124.34-17.05 124.89-15.9L124.89-15.9Q125.04-15.5 125.14-15.23 125.24-14.95 125.29-14.95ZM110.34-2.65L110.34-2.65Q110.34-0.85 111.59-0.85L111.59-0.85Q114.49-0.85 119.49-7.2L119.49-7.2 124.79-14.5Q124.39-15.2 123.49-15.2L123.49-15.2Q120.44-15.2 115.39-10.48 110.34-5.75 110.34-2.65ZM142.34-16.1L142.34-16.1 149.54-16.2Q149.69-16.1 149.69-16.05L149.69-16.05Q149.69-15.6 143.47-14.8 137.24-14 136.74-13.85L136.74-13.85Q135.79-13 133.24-8.78 130.69-4.55 130.69-2.6L130.69-2.6Q130.69-0.75 133.24-0.75L133.24-0.75Q134.44-0.75 136.39-1.5 138.34-2.25 139.39-2.9L139.39-2.9Q142.19-4.65 145.39-8.05L145.39-8.05Q146.09-8.75 146.34-8.75L146.34-8.75Q146.49-8.75 146.49-8.45 146.49-8.15 145.74-7.25L145.74-7.25Q143.14-4.05 139.89-2.1L139.89-2.1Q135.99 0.3 132.44 0.3L132.44 0.3Q130.89 0.3 129.92-0.38 128.94-1.05 128.94-3.1 128.94-5.15 130.74-8.72 132.54-12.3 133.49-14.05L133.49-14.05Q132.79-13.9 132.29-13.9L132.29-13.9Q130.84-13.9 130.84-15.05L130.84-15.05Q130.84-15.9 132.04-16.25L132.04-16.25Q132.19-16.25 132.49-16.3L132.49-16.3 135.39-16.3Q136.29-17.45 137.44-18.95L137.44-18.95Q138.84-20.75 139.34-20.75 139.84-20.75 140.59-20.35 141.34-19.95 141.34-19.4 141.34-18.85 138.94-16.15L138.94-16.15Q140.24-16.1 142.34-16.1ZM154.94-1.8L153.34-0.75Q151.89 0.1 149.76 0.1 147.64 0.1 146.51-1.3 145.39-2.7 144.59-5.75L144.59-5.75Q143.69-4.85 143.34-4.85L143.34-4.85Q143.09-4.85 143.09-5.2 143.09-5.55 143.34-5.8L143.34-5.8Q144.99-7.85 148.94-11.7L148.94-11.7 155.24-17.6Q157.94-20.15 158.44-20.15L158.44-20.15Q160.04-20.15 160.04-18.95L160.04-18.95Q160.04-18.35 159.56-17.78 159.09-17.2 158.86-16.88 158.64-16.55 158.39-16.25L158.39-16.25Q157.49-14.7 156.56-9.85 155.64-5 155.14-3.1L155.14-3.1Q159.29-3.15 163.69-8.5L163.69-8.5Q164.19-9 164.44-9 164.69-9 164.69-8.68 164.69-8.35 164.24-7.8L164.24-7.8Q161.34-4.4 158.84-3.05L158.84-3.05Q157.34-2.3 154.94-1.8L154.94-1.8ZM146.59-6.3L146.59-6.3Q146.59-4.6 147.71-3.53 148.84-2.45 150.24-2.45 151.64-2.45 152.39-3L152.39-3Q153.39-3.55 154.36-7.6 155.34-11.65 155.54-14.75L155.54-14.75 155.74-16.45Q152.99-14.4 149.86-11.15 146.74-7.9 146.64-6.85L146.64-6.85Q146.59-6.55 146.59-6.3Z" opacity="1" transform="matrix(1,0,0,1,0,0)" fill="#ffffff" class="wordmark-text-0" data-fill-palette-color="quaternary" id="text-0"></path></svg></g></svg></g></svg></g></svg></g><g transform="matrix(1,0,0,1,58.150677776074474,0)"><svg viewBox="0 0 96.85708567500816 76.56494041365215" height="76.56494041365215" width="96.85708567500816"><g><svg xmlns="http://www.w3.org/2000/svg" xmlns:xlink="http://www.w3.org/1999/xlink" version="1.1" x="0" y="0" viewBox="20.776999999999994 26.718 58.44700000000001 46.20200000000001" enable-background="new 0 0 100 100" xml:space="preserve" height="76.56494041365215" width="96.85708567500816" class="icon-icon-0" data-fill-palette-color="quaternary" id="icon-0"><path d="M50.155 26.718c-0.4 0-0.795 0.023-1.192 0.039 0.113 0.001 0.218 0 0.385 0.014 0.463 0.051 1.147 0.147 1.913 0.448 0.396 0.125 0.804 0.308 1.216 0.543 0.438 0.206 0.861 0.477 1.277 0.793 0.439 0.291 0.866 0.626 1.251 1.017l0.613 0.57c0.115 0.127 0.177 0.127 0.337 0.361l0.248 0.311c0.33 0.416 0.663 0.832 0.987 1.241 0.32 0.425 0.666 0.776 0.94 1.238 0.536 0.93 1.064 1.824 1.475 2.604 0.346 0.788 0.633 1.443 0.834 1.902 0.176 0.51 0.278 1.173 0.278 1.173h11.209C68.959 31.865 60.339 26.718 50.155 26.718z" fill="#ffffff" data-fill-palette-color="quaternary"></path><path d="M37.617 35.898c0.412-0.78 0.94-1.674 1.477-2.604 0.276-0.462 0.62-0.813 0.94-1.238 0.324-0.41 0.657-0.826 0.987-1.241l0.248-0.311c0.16-0.233 0.222-0.233 0.337-0.361l0.611-0.57c0.386-0.391 0.812-0.726 1.252-1.017 0.417-0.316 0.839-0.587 1.275-0.793 0.414-0.236 0.821-0.418 1.218-0.543 0.431-0.17 0.823-0.266 1.178-0.334-8.84 0.902-16.089 5.693-18.756 12.087h8.123c0 0 0.103-0.663 0.278-1.173C36.986 37.342 37.273 36.687 37.617 35.898z" fill="#ffffff" data-fill-palette-color="quaternary"></path><path d="M59.965 54.964h-9.273V38.973h6.274c-0.08-0.422-0.2-1.262-0.341-1.984-0.188-0.686-0.437-1.47-0.69-2.356-0.133-0.446-0.419-0.912-0.628-1.383-0.228-0.471-0.458-0.949-0.692-1.429l-0.174-0.358c0.037-0.001-0.11-0.176-0.156-0.255l-0.419-0.616c-0.262-0.427-0.567-0.804-0.896-1.144-0.307-0.365-0.628-0.693-0.974-0.96-0.326-0.298-0.657-0.546-0.99-0.739-0.64-0.437-1.256-0.671-1.688-0.817-0.388-0.127-0.614-0.159-0.664-0.165-0.032 0-0.063 0-0.097 0.001-0.066 0.01-0.278 0.043-0.646 0.163-0.433 0.146-1.05 0.38-1.688 0.817-0.334 0.193-0.664 0.441-0.992 0.739-0.344 0.267-0.666 0.595-0.973 0.96-0.329 0.34-0.634 0.717-0.898 1.144l-0.418 0.616c-0.046 0.079-0.193 0.253-0.155 0.255l-0.174 0.358c-0.233 0.48-0.465 0.958-0.692 1.429-0.211 0.471-0.496 0.938-0.628 1.383-0.254 0.886-0.503 1.67-0.69 2.356-0.142 0.722-0.261 1.562-0.342 1.984h9.051v15.991h-9.273v2.168h9.294c-0.175 0.653-0.458 1.596-0.878 2.596-0.266 0.638-1.083 1.091-1.948 1.569-1.323 0.733-2.825 1.565-2.784 3.379 0.061 2.612 0.001 8.178 0 8.233l0.941 0.012c0-0.058 0.06-5.638 0-8.265-0.029-1.248 1.101-1.875 2.3-2.538 0.965-0.535 1.966-1.089 2.357-2.028 0.332-0.788 0.579-1.532 0.76-2.146 0.182 0.614 0.428 1.358 0.76 2.146 0.392 0.939 1.392 1.493 2.359 2.028 1.197 0.663 2.328 1.29 2.299 2.536-0.06 2.628 0.001 8.21 0.002 8.266l0.94-0.012c-0.001-0.056-0.062-5.621-0.001-8.233 0.041-1.814-1.46-2.646-2.784-3.379-0.865-0.479-1.682-0.931-1.949-1.569-0.419-1-0.703-1.943-0.876-2.596h9.139V54.964z" fill="#ffffff" data-fill-palette-color="quaternary"></path><path d="M78.244 53.971c0.045 0.007 0.082 0.025 0.128 0.025 0.471 0 0.852-0.379 0.852-0.852 0-0.471-0.381-0.852-0.852-0.852-0.469 0-0.851 0.38-0.851 0.852 0 0.068 0.023 0.127 0.039 0.191-0.583 0.667-1.083 1.471-1.486 2.438-1.948-0.465-4.066-0.285-6.156 0.568-2.853 1.166-5.304 3.434-6.897 6.389-0.1 0.183-0.179 0.375-0.271 0.563-1.198 0.266-2.18 0.78-2.785 1.711l0.787 0.513c0.333-0.507 0.854-0.854 1.497-1.089-1.098 2.812-1.304 5.835-0.56 8.49h0.985c-0.837-2.714-0.579-5.883 0.709-8.772 1.763-0.289 4.037-0.088 6.148 0.104 1.946 0.178 3.772 0.329 5.21 0.148-0.018 0.783-0.052 1.553-0.098 2.29-0.156 2.403-0.271 4.528 0.838 6.23h1.19c-1.373-1.507-1.259-3.583-1.091-6.17 0.06-0.905 0.118-1.838 0.118-2.824 0-2.331 0.224-4.851 0.921-6.969 0.147 0.051 0.296 0.103 0.443 0.154 0.094 0.367 0.413 0.644 0.81 0.644 0.47 0 0.852-0.378 0.852-0.851 0-0.472-0.382-0.852-0.852-0.852-0.186 0-0.349 0.072-0.489 0.172-0.141-0.056-0.275-0.129-0.418-0.181C77.3 55.254 77.73 54.564 78.244 53.971zM74.783 63.452c-1.348 0.203-3.198 0.043-5.163-0.139-1.99-0.18-4.01-0.365-5.733-0.199 1.493-2.731 3.754-4.829 6.384-5.903 1.859-0.758 3.736-0.916 5.469-0.528C75.141 58.507 74.815 60.762 74.783 63.452z" fill="#ffffff" data-fill-palette-color="quaternary"></path><path d="M23.036 56.04c-0.144 0.052-0.279 0.125-0.42 0.181-0.142-0.101-0.303-0.172-0.489-0.172-0.47 0-0.852 0.38-0.852 0.852 0 0.473 0.382 0.851 0.852 0.851 0.396 0 0.715-0.276 0.81-0.644 0.147-0.051 0.294-0.103 0.441-0.154 0.701 2.118 0.921 4.639 0.921 6.969 0 0.985 0.062 1.919 0.122 2.824 0.166 2.587 0.279 4.663-1.092 6.17h1.187c1.112-1.702 0.997-3.828 0.841-6.23-0.047-0.737-0.08-1.507-0.094-2.29 1.435 0.18 3.261 0.029 5.205-0.148 2.114-0.192 4.387-0.392 6.149-0.104 1.292 2.889 1.549 6.059 0.709 8.772h0.987c0.741-2.655 0.536-5.678-0.56-8.49 0.644 0.235 1.166 0.582 1.497 1.089l0.787-0.513c-0.605-0.931-1.588-1.445-2.785-1.711-0.092-0.188-0.17-0.38-0.271-0.563-1.593-2.955-4.044-5.223-6.896-6.389-2.09-0.854-4.21-1.033-6.161-0.568-0.4-0.967-0.899-1.771-1.483-2.438 0.015-0.063 0.039-0.123 0.039-0.191 0-0.471-0.381-0.852-0.851-0.852-0.471 0-0.852 0.38-0.852 0.852 0 0.473 0.381 0.852 0.852 0.852 0.046 0 0.085-0.018 0.129-0.025C22.27 54.564 22.7 55.254 23.036 56.04zM24.262 56.683c1.73-0.388 3.608-0.23 5.466 0.528 2.628 1.074 4.894 3.172 6.384 5.903-1.723-0.167-3.743 0.019-5.731 0.199-1.967 0.182-3.818 0.342-5.163 0.139C25.183 60.762 24.859 58.507 24.262 56.683z" fill="#ffffff" data-fill-palette-color="quaternary"></path></svg></g></svg></g><g></g></svg></g></svg></g></svg></g></svg></g><defs></defs></svg><rect width="342.85155851775386" height="342.85155851775386" fill="none" stroke="none" visibility="hidden"></rect></g></svg></g></svg>